# This file uses centimeters as units for non-parametric coordinates.

mtllib new-lobby.mtl
g default
v -4.000000 -2.000000 4.000000
v 4.000000 -2.000000 4.000000
v -4.000000 2.000000 4.000000
v 4.000000 2.000000 4.000000
v -4.000000 2.000000 -4.000000
v 4.000000 2.000000 -4.000000
v -4.000000 -2.000000 -4.000000
v 4.000000 -2.000000 -4.000000
v -4.000000 -1.945032 4.000000
v 4.000000 -1.945032 4.000000
v 4.000000 1.579957 4.000000
v -4.000000 1.579957 4.000000
v -4.000000 1.579957 -4.000000
v 4.000000 1.579957 -4.000000
v 4.000000 -1.945032 -4.000000
v -4.000000 -1.945032 -4.000000
v -1.280289 -1.945032 1.280289
v 1.280289 -1.945032 1.280289
v 1.280289 1.579957 1.280289
v -1.280289 1.579957 1.280289
v -1.280289 1.579957 -1.280289
v 1.280289 1.579957 -1.280289
v 1.280289 -1.945032 -1.280289
v -1.280289 -1.945032 -1.280289
vt 0.001992 0.568128
vt 0.126019 0.568128
vt 0.126019 0.738868
vt 0.001992 0.738868
vt 0.001992 0.001907
vt 0.389489 0.001907
vt 0.389489 0.389404
vt 0.001992 0.389404
vt 0.086716 0.393396
vt 0.210743 0.393396
vt 0.210743 0.564136
vt 0.086716 0.564136
vt 0.395875 0.001907
vt 0.783372 0.001907
vt 0.783372 0.389404
vt 0.395875 0.389404
vt 0.132767 0.784884
vt 0.256794 0.784884
vt 0.256794 0.955625
vt 0.132767 0.955625
vt 0.263347 0.784884
vt 0.387374 0.784884
vt 0.387374 0.955625
vt 0.263347 0.955625
vt 0.789564 0.389404
vt 0.789564 0.001907
vt 0.792226 0.001907
vt 0.792226 0.389404
vt 0.819654 0.001907
vt 0.819654 0.389404
vt 0.799308 0.389404
vt 0.799308 0.001907
vt 0.826594 0.389404
vt 0.826594 0.001907
vt 0.846939 0.001907
vt 0.846939 0.389404
vt 0.856542 0.001907
vt 0.856542 0.389404
vt 0.853879 0.389404
vt 0.853879 0.001907
vt 0.863624 0.389404
vt 0.863624 0.001907
vt 0.866286 0.001907
vt 0.866286 0.389404
vt 0.893714 0.001907
vt 0.893714 0.389404
vt 0.873369 0.389404
vt 0.873369 0.001907
vt 0.900654 0.389404
vt 0.900654 0.001907
vt 0.903317 0.001907
vt 0.903317 0.389404
vt 0.930745 0.001907
vt 0.930745 0.389404
vt 0.910399 0.389404
vt 0.910399 0.001907
vt 0.610511 0.393396
vt 0.998008 0.393396
vt 0.866273 0.525131
vt 0.742246 0.525131
vt 0.998008 0.780893
vt 0.866273 0.649158
vt 0.610511 0.780893
vt 0.742246 0.649158
vt 0.604376 0.780893
vt 0.216879 0.780893
vt 0.348614 0.649158
vt 0.472641 0.649158
vt 0.216879 0.393396
vt 0.348614 0.525131
vt 0.604376 0.393396
vt 0.472641 0.525131
vn 0.000000 0.000000 1.000000
vn 0.000000 0.000000 1.000000
vn 0.000000 0.000000 1.000000
vn 0.000000 0.000000 1.000000
vn 0.000000 1.000000 0.000000
vn 0.000000 1.000000 0.000000
vn 0.000000 1.000000 0.000000
vn 0.000000 1.000000 0.000000
vn 0.000000 0.000000 -1.000000
vn 0.000000 0.000000 -1.000000
vn 0.000000 0.000000 -1.000000
vn 0.000000 0.000000 -1.000000
vn 0.000000 -1.000000 0.000000
vn 0.000000 -1.000000 0.000000
vn 0.000000 -1.000000 0.000000
vn 0.000000 -1.000000 0.000000
vn 1.000000 0.000000 0.000000
vn 1.000000 0.000000 0.000000
vn 1.000000 0.000000 0.000000
vn 1.000000 0.000000 0.000000
vn -1.000000 0.000000 0.000000
vn -1.000000 0.000000 0.000000
vn -1.000000 0.000000 0.000000
vn -1.000000 0.000000 0.000000
vn 0.000000 0.000000 1.000000
vn 0.000000 0.000000 1.000000
vn 0.000000 0.000000 1.000000
vn 0.000000 0.000000 1.000000
vn 0.000000 0.000000 1.000000
vn 0.000000 0.000000 1.000000
vn 0.000000 0.000000 1.000000
vn 0.000000 0.000000 1.000000
vn 0.000000 0.000000 -1.000000
vn 0.000000 0.000000 -1.000000
vn 0.000000 0.000000 -1.000000
vn 0.000000 0.000000 -1.000000
vn 0.000000 0.000000 -1.000000
vn 0.000000 0.000000 -1.000000
vn 0.000000 0.000000 -1.000000
vn 0.000000 0.000000 -1.000000
vn 1.000000 0.000000 0.000000
vn 1.000000 0.000000 0.000000
vn 1.000000 0.000000 0.000000
vn 1.000000 0.000000 0.000000
vn 1.000000 0.000000 0.000000
vn 1.000000 0.000000 0.000000
vn 1.000000 0.000000 0.000000
vn 1.000000 0.000000 0.000000
vn -1.000000 0.000000 0.000000
vn -1.000000 0.000000 0.000000
vn -1.000000 0.000000 0.000000
vn -1.000000 0.000000 0.000000
vn -1.000000 0.000000 0.000000
vn -1.000000 0.000000 0.000000
vn -1.000000 0.000000 0.000000
vn -1.000000 0.000000 0.000000
vn 0.000000 1.000000 0.000000
vn 0.000000 1.000000 0.000000
vn 0.000000 1.000000 0.000000
vn 0.000000 1.000000 0.000000
vn 0.000000 -1.000000 -0.000000
vn 0.000000 -1.000000 -0.000000
vn 0.000000 -1.000000 -0.000000
vn 0.000000 -1.000000 -0.000000
vn 0.000000 -1.000000 0.000000
vn 0.000000 -1.000000 0.000000
vn 0.000000 -1.000000 0.000000
vn 0.000000 -1.000000 0.000000
vn 0.000000 1.000000 -0.000000
vn 0.000000 1.000000 -0.000000
vn 0.000000 1.000000 -0.000000
vn 0.000000 1.000000 -0.000000
s off
g pCube4
usemtl initialShadingGroup
f 17/1/1 18/2/2 19/3/3 20/4/4
usemtl lambert2SG
f 3/5/5 4/6/6 6/7/7 5/8/8
usemtl initialShadingGroup
f 21/9/9 22/10/10 23/11/11 24/12/12
f 7/13/13 8/14/14 2/15/15 1/16/16
f 18/17/17 23/18/18 22/19/19 19/20/20
f 24/21/21 17/22/22 20/23/23 21/24/24
f 1/25/25 2/26/26 10/27/27 9/28/28
f 4/29/29 3/30/30 12/31/31 11/32/32
f 5/33/33 6/34/34 14/35/35 13/36/36
f 8/37/37 7/38/38 16/39/39 15/40/40
f 2/41/41 8/42/42 15/43/43 10/44/44
f 6/45/45 4/46/46 11/47/47 14/48/48
f 7/49/49 1/50/50 9/51/51 16/52/52
f 3/53/53 5/54/54 13/55/55 12/56/56
s 1
f 9/57/57 10/58/58 18/59/59 17/60/60
s 2
f 11/65/61 12/66/62 20/67/63 19/68/64
f 13/69/65 14/71/66 22/72/67 21/70/68
s 1
f 15/61/69 16/63/70 24/64/71 23/62/72
f 10/58/58 15/61/69 23/62/72 18/59/59
s 2
f 14/71/66 11/65/61 19/68/64 22/72/67
s 1
f 16/63/70 9/57/57 17/60/60 24/64/71
s 2
f 12/66/62 13/69/65 21/70/68 20/67/63
